<svg xmlns="http://www.w3.org/2000/svg" width="20" height="19" viewBox="0 0 20 19">
    <g fill="none" fill-rule="evenodd">
        <path d="M-2-3h24v24H-2z"/>
        <path fill="#FFF" d="M2.556.028C4.67.419 12.893 1.888 18.11 2.803c1 .246 1.889 1.215 1.889 2.8 0 1.62-.222 6.097-.235 7.296 0 1.447-.654 2.957-2.741 2.957h-2.596c0 1.156.448 2.166 1.683 3.12-1.39.239-4.263-1.344-5.667-3.12h-7C2.19 15.696.89 14.723.667 12.297.407 10.33.185 7.077 0 2.541.115.671.966-.168 2.556.028zM9.052 5H7v8h2.052L9.05 9.705h2.897V13H14V5h-2.052v2.941H9.051V5z"/>
    </g>
</svg>
