<svg xmlns="http://www.w3.org/2000/svg" width="18" height="18" viewBox="0 0 18 18">
    <g fill="none" fill-rule="evenodd">
        <path d="M-3-3h24v24H-3z"/>
        <path fill="#FFF" fill-rule="nonzero" d="M2 0h14a2 2 0 0 1 2 2v14a2 2 0 0 1-2 2H6.29c.4-.67.9-1.62 1.1-2.36l.66-2.3c.31.61 1.23 1.11 2.17 1.11 2.95 0 5-2.67 5-6 0-3.17-2.58-5.56-5.92-5.56-4.16 0-6.33 2.78-6.33 5.83 0 1.42.72 3.17 1.94 3.73.17.11.28.05.28-.11l.28-1.06c.03-.14.03-.22-.06-.28-.44-.55-.72-1.39-.72-2.22 0-2.14 1.61-4.17 4.34-4.17 2.39 0 4.05 1.58 4.05 3.89 0 2.61-1.33 4.45-3.05 4.45-.98 0-1.64-.84-1.48-1.78.28-1.14.84-2.34.84-3.17 0-.78-.39-1.39-1.23-1.39-.94 0-1.77 1-1.77 2.34 0 .88.27 1.44.27 1.44l-1.11 4.78c-.16.83-.08 2.08 0 2.83H2a2 2 0 0 1-2-2V2a2 2 0 0 1 2-2z"/>
        <path fill-rule="nonzero" d="M-3-3h24v24H-3z"/>
    </g>
</svg>
