<svg xmlns="http://www.w3.org/2000/svg" width="30" height="29" viewBox="0 0 30 29">
    <g fill="none" fill-rule="evenodd" stroke="#303030" stroke-linecap="round" stroke-linejoin="round">
        <path d="M26.36 27.636l.014-5.134-4.872 1.124M4.793.24l-.371 5.12 4.938-.782"/>
        <path d="M1.036 13.487C1.012 13.822 1 14.16 1 14.5c0 7.732 6.268 14 14 14a13.97 13.97 0 0 0 10.728-5.004m2.987-6.173c.187-.912.285-1.856.285-2.823 0-7.732-6.268-14-14-14-3.92 0-7.464 1.611-10.005 4.207"/>
        <path d="M11 18.061C11.754 19.354 13.046 20 14.878 20c2.746 0 3.784-3.718 1.564-5.074-2.22-1.355-3.82-1.002-3.82-3.204 0-2.201 2.044-3.701 5.378-1.964M14.699 6l-.03 2.967M14.508 20l-.016 3"/>
    </g>
</svg>
