<svg width="24" height="24" xmlns="http://www.w3.org/2000/svg">

 <g>
  <title>background</title>
  <rect fill="none" id="canvas_background" height="26" width="26" y="-1" x="-1"/>
 </g>
 <g>
  <title>Layer 1</title>
  <path stroke="null" id="svg_1" d="m17.268904,2.198241c3.149778,0 5.70936,2.565795 5.70936,5.734211c0,1.627696 -0.677171,3.093864 -1.75816,4.137578l-9.219468,9.306444l-9.380995,-9.474183c-0.981588,-1.031288 -1.59042,-2.429118 -1.59042,-3.969838c0,-3.168415 2.55337,-5.734211 5.70936,-5.734211c2.373205,0 4.404719,1.453744 5.268267,3.528745c0.851123,-2.068789 2.888849,-3.528745 5.262055,-3.528745m0,-0.956737c-2.099852,0 -4.025751,0.981588 -5.268267,2.596858c-1.242516,-1.615271 -3.168415,-2.596858 -5.268267,-2.596858c-3.671634,0 -6.659885,3.000676 -6.659885,6.690948c0,1.73331 0.658533,3.379643 1.857561,4.634584l9.39342,9.486609l0.677171,0.683384l0.677171,-0.683384l9.213255,-9.306444c1.304642,-1.261154 2.037726,-2.975825 2.037726,-4.814749c0,-3.690272 -2.988251,-6.690948 -6.659885,-6.690948l0,0z"/>
 </g>
</svg>